# xmcd
#
# Track frame offsets:
#	150
#	15657
#	33020
#	50194
#	71437
#	85262
#	100499
#	117399
#	132070
#	149239
#	149704
#	167280
#	179280
#	193990
#	208333
#	230850
#	247593
#	259547
#	275257
#	289509
#	306572
#	321584
#	334412
#
# Disc length: 4707 seconds
#
# Revision: 1
# Processed by: cddbd v1.5.1PL0 Copyright (c) Steve Scherf et al.
# Submitted via: audiograbber 1.83.01
#
DISCID=6d126117
DTITLE=Promo Only Canada - Country Radio - 1999 - 07 - July
DYEAR=1999
DGENRE=Country
TTITLE0=Shania Twain - You've Got A Way
TTITLE1=Dixie Chicks - Ready To Run
TTITLE2=Bryan White - You're Still Beautiful To Me
TTITLE3=Mark Wills - She's In Love
TTITLE4=Andy Griggs - I'll Go Crazy
TTITLE5=Mindy McCready - One In A Million
TTITLE6=Shane McAnally - Are Your Eyes Still Blue
TTITLE7=Jessica Andrews - You Go First (Do You Wanna Kiss)
TTITLE8=John Berry - Love Is For Giving
TTITLE9=Vince Gill with Patty Loveless - Artist Drop
TTITLE10=Vince Gill with Patty Loveless - My Kind Of Woman, My Kind Of Man
TTITLE11=Yankee Grey - All Things Considered
TTITLE12=Rebecca Lynn Howard - When My Dreams Come True
TTITLE13=Marty Stuart - Red, Red Wine And Cheatin' Songs
TTITLE14=Terri Clark - Unsung Hero
TTITLE15=Jason Sellers - A Matter Of Time
TTITLE16=Lee Ann Womack - (Now You See Me) Now You Don't
TTITLE17=Alison Krauss - Forget About It
TTITLE18=Aaron Tippin - Her
TTITLE19=Jim Witter - Jumpin' Right In
TTITLE20=Montgomery Gentry - Lonely And Gone
TTITLE21=Michael Peterson - Sure Feels Real Good
TTITLE22=Charlie Robinson - You're Not The Best
EXTD=
EXTT0=
EXTT1=
EXTT2=
EXTT3=
EXTT4=
EXTT5=
EXTT6=
EXTT7=
EXTT8=
EXTT9=
EXTT10=
EXTT11=
EXTT12=
EXTT13=
EXTT14=
EXTT15=
EXTT16=
EXTT17=
EXTT18=
EXTT19=
EXTT20=
EXTT21=
EXTT22=
PLAYORDER=
